Coordinates
version=1
nRows=17
nColumns=38
inDegrees=yes

Units are S.I. units (second, meters, Newtons, ...)
Angles are in degrees.

endheader
time	pelvis_tilt	pelvis_list	pelvis_rotation	pelvis_tx	pelvis_ty	pelvis_tz	hip_flexion_r	hip_adduction_r	hip_rotation_r	knee_angle_r	ankle_angle_r	subtalar_angle_r	mtp_angle_r	hip_flexion_l	hip_adduction_l	hip_rotation_l	knee_angle_l	ankle_angle_l	subtalar_angle_l	mtp_angle_l	lumbar_extension	lumbar_bending	lumbar_rotation	arm_flex_r	arm_add_r	arm_rot_r	elbow_flex_r	pro_sup_r	wrist_flex_r	wrist_dev_r	arm_flex_l	arm_add_l	arm_rot_l	elbow_flex_l	pro_sup_l	wrist_flex_l	wrist_dev_l
      7.89000000	      0.66794549	     -3.18565520	     -1.95871800	     -0.02011778	      0.84214757	      2.61041959	    -20.03470327	      3.12344380	     -5.99078322	     -7.38726499	      9.31923143	      0.00000000	      0.00000000	     27.44779496	     -5.83990542	     -0.95632724	     -6.33464181	     -8.86040779	      0.00000000	      0.00000000	     -7.12878051	     -1.08832650	      5.64760707	      6.85582906	    -12.36590161	      6.72337997	     64.31277570	     82.55193988	      0.00000000	      0.00000000	    -12.80368028	     -9.28466411	     -6.88544094	      9.42473575	    104.97116015	      0.00000000	      0.00000000
      7.90000000	      0.78264491	     -2.93406899	     -2.44904680	     -0.01805000	      0.83968094	      2.60842742	    -20.82513925	      2.26028538	     -5.24321806	     -8.43988119	      8.56740273	      0.00000000	      0.00000000	     27.19357305	     -5.73714630	     -1.72413781	     -6.66756510	     -9.18971012	      0.00000000	      0.00000000	     -6.91170011	     -1.39098976	      6.21194858	      6.34215377	    -12.59718178	      6.72631365	     65.75709643	     82.59346736	      0.00000000	      0.00000000	    -13.47538999	     -9.13726842	     -6.92826789	      8.74858650	    106.26663258	      0.00000000	      0.00000000
      7.91000000	      0.87142139	     -2.55032293	     -2.93022758	     -0.01599929	      0.83754150	      2.60619506	    -21.40107899	      1.24242971	     -4.50948343	     -9.76577991	      7.60420549	      0.00000000	      0.00000000	     26.98000421	     -5.48760273	     -2.64960634	     -7.67118539	    -10.05158879	      0.00000000	      0.00000000	     -6.64758095	     -1.78373150	      6.70609355	      5.80916940	    -12.79501775	      6.73797305	     66.99511165	     82.74162591	      0.00000000	      0.00000000	    -14.09025823	     -9.01316220	     -6.91997790	      8.20403325	    107.32873466	      0.00000000	      0.00000000
      7.92000000	      0.89737320	     -2.02440019	     -3.32428236	     -0.01398694	      0.83569303	      2.60367916	    -21.67468964	      0.09924397	     -3.88825442	    -11.43672084	      6.35339781	      0.00000000	      0.00000000	     26.91125460	     -5.03495840	     -3.60239670	     -9.27866124	    -11.25779664	      0.00000000	      0.00000000	     -6.31892176	     -2.30464664	      7.07221510	      5.27415185	    -12.92751630	      6.73265176	     67.96342444	     83.00204958	      0.00000000	      0.00000000	    -14.58765806	     -8.93059676	     -6.87740580	      7.76027609	    108.04950102	      0.00000000	      0.00000000
      7.93000000	      0.85249186	     -1.34791111	     -3.53903376	     -0.01200256	      0.83427698	      2.60085964	    -21.59569087	     -1.12523161	     -3.48228621	    -13.51591021	      4.71065813	      0.00000000	      0.00000000	     27.08236198	     -4.33453819	     -4.39259416	    -11.34947188	    -12.42395047	      0.00000000	      0.00000000	     -5.93114956	     -2.99249896	      7.26178661	      4.74210329	    -12.96858297	      6.68492927	     68.60570523	     83.35618585	      0.00000000	      0.00000000	    -14.92855040	     -8.89813055	     -6.79306015	      7.39003802	    108.38916595	      0.00000000	      0.00000000
      7.94000000	      0.75656946	     -0.52020246	     -3.51751347	     -0.01030899	      0.83360440	      2.59782233	    -21.14842090	     -2.38087948	     -3.36384312	    -16.03260075	      2.56818766	      0.00000000	      0.00000000	     27.49128603	     -3.36079683	     -4.83042614	    -13.71657077	    -13.12458300	      0.00000000	      0.00000000	     -5.52341694	     -3.85744141	      7.25019441	      4.21345572	    -12.90681949	      6.58293781	     68.90016893	     83.76142746	      0.00000000	      0.00000000	    -15.09867067	     -8.92256869	     -6.64186149	      7.08069663	    108.37404130	      0.00000000	      0.00000000
      7.95000000	      0.64414226	      0.43615051	     -3.26975287	     -0.00905039	      0.83376122	      2.59467195	    -20.34136613	     -3.63454267	     -3.53582498	    -18.97849175	     -0.14774333	      0.00000000	      0.00000000	     27.99898127	     -2.11361129	     -4.80918986	    -16.21504374	    -13.07894718	      0.00000000	      0.00000000	     -5.16575556	     -4.86743347	      7.04203201	      3.69224646	    -12.75208978	      6.43814752	     68.87368237	     84.15911656	      0.00000000	      0.00000000	    -15.09967471	     -9.00209007	     -6.39613420	      6.84209137	    108.07534603	      0.00000000	      0.00000000
      7.96000000	      0.56216072	      1.47880557	     -2.86667433	     -0.00807074	      0.83458183	      2.59141594	    -19.20654132	     -4.89320992	     -3.90892230	    -22.33173256	     -3.43499443	      0.00000000	      0.00000000	     28.39695033	     -0.63602404	     -4.35978122	    -18.65785182	    -12.25449921	      0.00000000	      0.00000000	     -4.94054584	     -5.95967889	      6.66890928	      3.19213133	    -12.53330907	      6.28824004	     68.59188893	     84.48843700	      0.00000000	      0.00000000	    -14.94145634	     -9.11562328	     -6.03981783	      6.70404075	    107.58123336	      0.00000000	      0.00000000
      7.97000000	      0.55728633	      2.56103954	     -2.40934590	     -0.00732460	      0.83591461	      2.58809705	    -17.79324611	     -6.19275258	     -4.31700044	    -26.07875880	     -7.18037219	      0.00000000	      0.00000000	     28.50727986	      0.98676385	     -3.64253038	    -20.82066154	    -10.84342196	      0.00000000	      0.00000000	     -4.91292029	     -7.06250229	      6.17771107	      2.73911587	    -12.28839084	      6.18988074	     68.12797310	     84.70234220	      0.00000000	      0.00000000	    -14.64002633	     -9.23522236	     -5.57760521	      6.70415691	    106.97215083	      0.00000000	      0.00000000
      7.98000000	      0.64784426	      3.64589188	     -1.99115328	     -0.00700952	      0.83773886	      2.58492532	    -16.14509124	     -7.54173481	     -4.57626907	    -30.20130317	    -11.14211883	      0.00000000	      0.00000000	     28.22600223	      2.65079414	     -2.88112037	    -22.49145497	     -9.14905883	      0.00000000	      0.00000000	     -5.09911524	     -8.11432397	      5.61232102	      2.36691616	    -12.05404531	      6.20207626	     67.52449749	     84.78107011	      0.00000000	      0.00000000	    -14.21640515	     -9.34751028	     -5.03742821	      6.87374909	    106.30530478	      0.00000000	      0.00000000
      7.99000000	      0.81649016	      4.70607734	     -1.66346856	     -0.00719166	      0.83997008	      2.58201963	    -14.28022662	     -8.87168495	     -4.55957984	    -34.63163601	    -14.95951580	      0.00000000	      0.00000000	     27.52108863	      4.24824329	     -2.27388939	    -23.54779567	     -7.45654784	      0.00000000	      0.00000000	     -5.45259150	     -9.06961298	      5.00631756	      2.10225694	    -11.85623528	      6.37036498	     66.76660664	     84.73947896	      0.00000000	      0.00000000	    -13.69693657	     -9.45266300	     -4.46687287	      7.22705347	    105.60985750	      0.00000000	      0.00000000
      8.00000000	      1.02639299	      5.69290105	     -1.42876175	     -0.00775700	      0.84247879	      2.57928665	    -12.20182761	    -10.05695211	     -4.23839197	    -39.22075970	    -18.19683475	      0.00000000	      0.00000000	     26.42921782	      5.67005657	     -1.92865810	    -23.99463536	     -5.94928853	      0.00000000	      0.00000000	     -5.88124824	     -9.88652195	      4.39309613	      1.95122898	    -11.70097643	      6.72001941	     65.78277899	     84.62610683	      0.00000000	      0.00000000	    -13.11286205	     -9.54785174	     -3.92655314	      7.75615165	    104.89104644	      0.00000000	      0.00000000
      8.01000000	      1.22865716	      6.51370469	     -1.27931677	     -0.00860094	      0.84531575	      2.57675481	     -9.93109987	    -10.97927754	     -3.67082646	    -43.76378930	    -20.42785977	      0.00000000	      0.00000000	     25.04981788	      6.81227858	     -1.85256324	    -23.94245205	     -4.69045032	      0.00000000	      0.00000000	     -6.28217818	    -10.51349089	      3.81661005	      1.90558618	    -11.57341980	      7.25378334	     64.47915433	     84.51388918	      0.00000000	      0.00000000	    -12.49127371	     -9.62298041	     -3.48245277	      8.43372414	    104.14040171	      0.00000000	      0.00000000
      8.02000000	      1.37042336	      7.07099799	     -1.24140989	     -0.00956326	      0.84854828	      2.57463166	     -7.51446079	    -11.56418968	     -2.95254673	    -48.06563404	    -21.35547491	      0.00000000	      0.00000000	     23.51924548	      7.59182613	     -1.99335702	    -23.54755513	     -3.65298853	      0.00000000	      0.00000000	     -6.57387297	    -10.89870917	      3.33014262	      1.96363177	    -11.44856744	      7.95016910	     62.79082233	     84.48511173	      0.00000000	      0.00000000	    -11.84597327	     -9.67224733	     -3.19645852	      9.22019775	    103.34966029	      0.00000000	      0.00000000
      8.03000000	      1.42025723	      7.32545081	     -1.36770647	     -0.01064575	      0.85201652	      2.57303356	     -4.98775196	    -11.78193917	     -2.16128233	    -51.98735652	    -20.92536346	      0.00000000	      0.00000000	     21.96396783	      7.96956588	     -2.29716819	    -22.95124118	     -2.76898831	      0.00000000	      0.00000000	     -6.71648191	    -11.02065482	      2.98390350	      2.13580755	    -11.30558889	      8.76769750	     60.71717695	     84.61523998	      0.00000000	      0.00000000	    -11.17857461	     -9.70153647	     -3.11398623	     10.07255827	    102.52535104	      0.00000000	      0.00000000
      8.04000000	      1.38176406	      7.31467737	     -1.69098403	     -0.01204736	      0.85551067	      2.57191586	     -2.35109482	    -11.64433365	     -1.32481154	    -55.45128646	    -19.36513055	      0.00000000	      0.00000000	     20.45555664	      7.97326571	     -2.74417555	    -22.24422595	     -1.97403886	      0.00000000	      0.00000000	     -6.71492113	    -10.91129625	      2.80660657	      2.42471767	    -11.13745642	      9.65709192	     58.32168430	     84.95931024	      0.00000000	      0.00000000	    -10.48333969	     -9.72293988	     -3.25136324	     10.95579758	    101.69889664	      0.00000000	      0.00000000
      8.05000000	      1.27557153	      7.12416522	     -2.19535684	     -0.01369292	      0.85898387	      2.57123424	      0.40159971	    -11.20736320	     -0.42759815	    -58.43121239	    -17.10537582	      0.00000000	      0.00000000	     19.00373548	      7.69968341	     -3.34425942	    -21.45853040	     -1.23347799	      0.00000000	      0.00000000	     -6.60476233	    -10.64938247	      2.79321611	      2.80432721	    -10.95160304	     10.57446295	     55.70494870	     85.54261244	      0.00000000	      0.00000000	     -9.75032563	     -9.74601810	     -3.58876184	     11.85299264	    100.92688645	      0.00000000	      0.00000000
